# xmcd CD database file
#
# Track frame offsets:
#	150
#	4864
#	78524
#	125491
#	188639
#	190527
#
# Disc length: 3475 seconds
#
# Revision: 0
# Processed by: cddbd v1.5.2PL0 Copyright (c) Steve Scherf et al.
# Submitted via: CDex 1.51
#
DISCID=400d9106
DTITLE=Tubby Hayes - TUBBS
DYEAR=1963
DGENRE=Jazz
TTITLE0=Introduction
TTITLE1=All of you
TTITLE2=Modes and Blues
TTITLE3=Modes and Blues
TTITLE4=Introduction
TTITLE5=Blue flues
EXTD=YEAR: 1963
EXTT0=
EXTT1=
EXTT2=
EXTT3=
EXTT4=
EXTT5=
PLAYORDER=
